<svg width="96" height="96" viewBox="0 0 96 96" fill="none" xmlns="http://www.w3.org/2000/svg">
<circle cx="47.8667" cy="47.8667" r="47.8667" fill="#009944"/>
<mask id="mask0_306_171" style="mask-type:alpha" maskUnits="userSpaceOnUse" x="0" y="0" width="96" height="96">
<circle cx="48.1778" cy="48.1777" r="47.5556" fill="#AA1234"/>
</mask>
<g mask="url(#mask0_306_171)">
<path d="M24.009 75.2528L64.5161 61.1749L85.4101 81.981L58.0737 109.317L24.009 75.2528Z" fill="#004422"/>
</g>
<path d="M57.5114 10.3999C61.9203 16.9777 58 20.311 53.6003 22.2666C40.9778 26.8443 34.2667 28.5332 31.9557 31.4221C29.4668 34.3377 32.0889 37.2888 33.8225 38.1777C37.0581 39.991 41.3633 42.1036 43.1114 42.9332C45.1557 44.1332 43.3779 45.2443 42.667 46.1777C42.0001 47.3332 43.6003 48.2369 44.667 48.8443C46.5656 49.942 47.3586 50.7447 47.6037 51.144C47.6762 51.2622 47.7242 51.3946 47.7789 51.5222C48.0766 52.2166 48.0546 52.9457 48.0003 53.2443C49.6003 51.1821 47.6003 48.9777 46.4003 48.1332C45.0136 46.9243 46.5336 45.4073 47.467 44.7999C48.9958 43.6977 48.9779 42.9777 48.667 42.4888C47.2446 40.7555 44.5633 40.0295 43.6447 39.7332C39.307 38.3821 38.6373 36.5332 38.8447 35.7777C39.5203 33.9643 42.504 33.3332 43.9114 33.2443C53.7247 31.9288 57.2889 30.9777 62.7559 27.1999C68.6222 22.6666 61.4373 14.0592 57.5114 10.3999Z" fill="white"/>
<rect x="72" y="75.7687" width="48.2667" height="2.67386" rx="1.33693" transform="rotate(-180 72 75.7687)" fill="white"/>
<path d="M69.5318 72.272H26.2015C26.2015 64.1878 32.755 57.6 40.8392 57.6H54.8941C62.9783 57.6 69.5318 64.1878 69.5318 72.272Z" fill="white"/>
<path d="M45.8667 56.0445C45.8667 55.6763 46.1651 55.3778 46.5333 55.3778H49.2C49.5682 55.3778 49.8667 55.6763 49.8667 56.0445C49.8667 56.4127 49.5682 56.7111 49.2 56.7111H46.5333C46.1651 56.7111 45.8667 56.4127 45.8667 56.0445Z" fill="white"/>
</svg>
